# xmcd
#
# Track frame offsets: 
#        150
#        15270
#        34852
#        54232
#        76607
#        87640
#        98085
#        118475
#        140940
#        157165
#        176797
#
# Disc length: 2704 seconds
#
# Revision: 2
# Processed by: cddbd v1.5.2PL0 Copyright (c) Steve Scherf et al.
# Submitted via: ExactAudioCopy v0.99pb5
#
DISCID=900a8e0b
DTITLE=Mighty Mo Rodgers - Blues Is My Wailin' Wall
DYEAR=1999
DGENRE=Soul Blues
TTITLE0=Blues Is My Wailin' Wall
TTITLE1=Took Away The Drum
TTITLE2=Heaven's Got The Blues
TTITLE3=No Regrets
TTITLE4=Tuskegee Blues
TTITLE5=No Dough
TTITLE6=The Kennedy Song
TTITLE7=(Bring Back) Sweet Soul Music
TTITLE8=Willie B. And Me
TTITLE9=Gone Fishin'
TTITLE10=Shame!
EXTD=
EXTT0=
EXTT1=
EXTT2=
EXTT3=
EXTT4=
EXTT5=
EXTT6=
EXTT7=
EXTT8=
EXTT9=
EXTT10=
PLAYORDER=
